<svg width="1097" height="966" viewBox="0 0 1097 966" fill="none" xmlns="http://www.w3.org/2000/svg">
<g clip-path="url(#clip0_10013_11490)">
<path d="M4.55322 689.626C22.3092 675.608 39.0408 663.527 54.7479 653.27C54.7479 653.27 123.723 603.808 207.836 592.525C232.877 589.106 259.169 588.992 285.462 594.69C395.071 618.51 406.908 636.403 481.574 649.737C556.24 663.185 606.207 662.274 661.296 686.207C698.629 702.391 720.255 722.677 720.028 746.611C720.028 758.463 722.987 820.12 570.695 795.731C450.046 767.809 403.266 742.28 336.681 777.724C305.608 794.249 323.022 829.238 361.607 812.484C383.12 803.139 405.542 801.316 457.672 809.521C490.907 814.764 514.127 826.275 590.842 839.381C681.215 854.881 752.694 817.727 766.239 782.511C778.417 750.941 772.385 717.89 757.133 697.832C829.181 682.446 874.026 653.27 952.449 625.234C1024.04 599.705 1077.88 613.267 1093.36 638.682C1105.08 657.715 1085.05 674.696 1073.89 681.078C843.295 812.598 623.849 982.868 506.159 964.291C471.558 958.821 446.631 951.982 422.274 941.383C108.13 804.279 120.081 823.425 64.6504 845.307C43.2522 853.741 -17.1864 706.379 4.43945 689.284L4.55322 689.626Z" fill="#E7F0F7"/>
<path d="M606.776 460.321V633.326C606.776 633.326 522.777 624.892 487.834 617.94C465.753 613.609 451.525 610.19 440.371 607.341V460.321C440.371 414.278 477.59 377.01 523.574 377.01C569.557 377.01 606.776 414.278 606.776 460.321Z" fill="#E7F0F7"/>
<path d="M81.9512 348.631C118.032 322.191 506.159 27.2392 506.159 27.2392C512.192 21.8827 518.338 20.2871 523.915 20.2871C529.493 20.2871 535.411 21.8827 541.671 27.2392C541.671 27.2392 929.799 322.305 965.88 348.631C1001.96 375.072 985.457 422.483 946.416 422.483H906.238V597.425C888.482 604.605 871.75 611.785 855.474 618.624V397.068C855.474 390.002 858.319 383.734 862.872 379.061C867.425 374.388 873.799 371.653 880.856 371.653H914.66L523.802 77.3855L132.943 371.767H166.747C173.804 371.767 180.064 374.616 184.731 379.175C189.398 383.734 192.129 390.116 192.129 397.182V554.687C177.788 556.169 156.39 560.5 141.365 566.312V422.597H101.187C62.1465 422.597 45.7563 375.186 81.7236 348.745L81.9512 348.631Z" fill="#E7F0F7"/>
</g>
<defs>
<clipPath id="clip0_10013_11490">
<rect width="1097" height="966" fill="white" transform="matrix(-1 0 0 1 1097 0)"/>
</clipPath>
</defs>
</svg>
