<?xml version="1.0" encoding="UTF-8"?>
<svg id="_레이어_1" data-name="레이어_1" xmlns="http://www.w3.org/2000/svg" xmlns:xlink="http://www.w3.org/1999/xlink" version="1.1" viewBox="0 0 1097 966">
  <!-- Generator: Adobe Illustrator 29.8.4, SVG Export Plug-In . SVG Version: 2.1.1 Build 6)  -->
  <defs>
    <style>
      .st0 {
        fill: none;
      }

      .st1 {
        fill: #e7f0f7;
      }

      .st2 {
        clip-path: url(#clippath);
      }
    </style>
    <clipPath id="clippath">
      <rect class="st0" x="0" y="0" width="1097" height="966"/>
    </clipPath>
  </defs>
  <g class="st2">
    <g>
      <path class="st1" d="M1092.6,689.3c21.6,17.1-38.8,164.5-60.2,156-55.4-21.9-43.5-41-357.6,96.1-24.4,10.6-49.3,17.4-83.9,22.9-117.7,18.6-337.1-151.7-567.7-283.2-11.2-6.4-31.2-23.4-19.5-42.4,15.5-25.4,69.3-39,140.9-13.4,78.4,28,123.3,57.2,195.3,72.6-15.3,20.1-21.3,53.1-9.1,84.7,13.5,35.2,85,72.4,175.4,56.9,76.7-13.1,99.9-24.6,133.2-29.9,52.1-8.2,74.6-6.4,96.1,3,38.6,16.8,56-18.2,24.9-34.8-66.6-35.4-113.4-9.9-234,18-152.3,24.4-149.3-37.3-149.3-49.1-.2-23.9,21.4-44.2,58.7-60.4,55.1-23.9,105.1-23,179.7-36.5,74.7-13.3,86.5-31.2,196.1-55,26.3-5.7,52.6-5.6,77.6-2.2,84.1,11.3,153.1,60.7,153.1,60.7,15.7,10.3,32.4,22.3,50.2,36.4v-.3Z"/>
      <path class="st1" d="M573.4,377c46,0,83.2,37.3,83.2,83.3v147c-11.2,2.8-25.4,6.3-47.5,10.6-34.9,7-118.9,15.4-118.9,15.4v-173c0-46,37.2-83.3,83.2-83.3Z"/>
      <path class="st1" d="M1015.3,348.7c36,26.4,19.6,73.9-19.5,73.9h-40.2s0,143.7,0,143.7c-15-5.8-36.4-10.1-50.8-11.6v-157.5c0-7.1,2.7-13.4,7.4-18,4.7-4.6,10.9-7.4,18-7.4h33.8S573.2,77.4,573.2,77.4L182.3,371.7h33.8c7.1,0,13.4,2.7,18,7.4,4.6,4.7,7.4,10.9,7.4,18v221.6c-16.3-6.8-33-14-50.8-21.2v-174.9s-40.2,0-40.2,0c-39,0-55.5-47.4-19.5-73.9,36.1-26.3,424.2-321.4,424.2-321.4,6.3-5.4,12.2-7,17.8-7s11.7,1.6,17.8,7c0,0,388.1,295,424.2,321.4h.2Z"/>
    </g>
  </g>
</svg>