<svg width="140" height="35" viewBox="0 0 140 35" fill="none" xmlns="http://www.w3.org/2000/svg">
<path d="M47.7969 23.8205C51.0183 20.7515 54.2397 17.4394 56.235 15.1394C58.1685 12.9302 58.5349 11.889 58.5349 10.3218C58.5349 8.4826 57.3995 7.22379 55.3752 7.22379C53.5033 7.22379 52.4295 8.20689 51.6314 9.79946C50.4052 9.37139 48.6857 8.35926 47.6445 7.49949C49.2407 4.40143 51.7547 2.83789 55.3752 2.83789C60.5592 2.83789 63.2582 5.81261 63.2582 9.9228C63.2582 12.6218 62.6125 14.8311 60.0078 17.8385C58.8723 19.1589 56.819 21.3065 54.334 23.7298C56.605 23.6682 61.818 23.6682 63.6899 23.7298C63.7806 25.0503 63.7806 26.9803 63.6899 28.0867C61.789 28.2101 50.2529 28.2101 47.8005 28.0867C47.7098 26.6139 47.7098 25.2934 47.8005 23.8242L47.7969 23.8205Z" fill="#242424"/>
<path d="M83.9644 23.4507C83.5037 23.4797 82.3065 23.4797 80.743 23.5124C80.743 25.689 80.714 27.3759 80.6813 28.2066C79.8542 28.2973 77.1225 28.2973 76.2954 28.2066C76.2664 27.3178 76.2337 25.5693 76.2337 23.5124C71.8478 23.5124 67.0629 23.5124 65.9564 23.4507C65.8947 22.1302 65.8947 20.6573 65.9564 19.3078C68.104 15.4117 73.0123 6.54558 75.0076 3.20083C76.7561 3.11014 79.0271 3.11014 80.6813 3.20083C80.743 6.38958 80.772 13.4455 80.772 19.3369C82.1542 19.3659 83.3477 19.3659 83.9608 19.3659C84.0515 20.6864 84.0515 22.1592 83.9608 23.4471L83.9644 23.4507ZM76.2337 19.3405C76.2337 15.1977 76.2628 10.9351 76.2954 9.27724C74.4852 12.865 72.5842 16.3331 70.8357 19.3695C71.6338 19.3695 73.8104 19.3405 76.2337 19.3405Z" fill="#242424"/>
<path d="M99.5007 5.18421C99.5877 6.28703 99.5877 7.91224 99.5007 8.92437C96.5405 8.98241 88.3636 9.04046 86.216 8.92437C86.0999 7.76351 86.0999 6.22536 86.216 5.18421C87.1737 5.15519 88.7409 5.12616 90.5656 5.12616C90.5656 4.11041 90.5946 3.09465 90.6236 2.48519C91.4072 2.34009 94.0736 2.31107 95.0894 2.48519C95.1184 3.09465 95.1474 4.11041 95.1184 5.12616C96.5695 5.12616 98.0496 5.15519 99.497 5.18421H99.5007ZM99.2685 19.2524C99.2685 25.7787 97.6723 28.3906 92.8583 28.3906C88.0443 28.3906 86.4481 25.7787 86.4481 19.2524C86.4481 12.7262 88.0443 10.1143 92.8583 10.1143C97.6723 10.1143 99.2685 12.7262 99.2685 19.2524ZM95.1764 19.2524C95.1764 15.0189 94.654 13.771 92.8547 13.771C91.0553 13.771 90.533 15.0189 90.533 19.2524C90.533 23.486 91.0263 24.7339 92.8547 24.7339C94.6831 24.7339 95.1764 23.486 95.1764 19.2524ZM110.609 29.1742C109.825 29.2903 107.474 29.2323 106.462 29.1742C106.433 27.52 106.433 22.2707 106.433 16.8763H104.837C104.837 22.1546 104.808 27.2588 104.808 28.913C104.024 29.0001 101.674 29.0001 100.662 28.913C100.545 25.405 100.574 6.25801 100.662 3.21436C101.445 3.04023 103.941 3.06926 104.808 3.21436C104.837 4.66545 104.866 8.55072 104.866 12.8749C105.388 12.8749 105.94 12.8749 106.433 12.904C106.433 8.35119 106.462 4.31719 106.462 3.06926C107.246 2.89513 109.742 2.89513 110.609 3.06926C110.667 6.69333 110.667 25.6662 110.609 29.1742Z" fill="#242424"/>
<path d="M139.911 28.6962C137.273 28.8813 117.147 28.8196 113.53 28.6962C113.407 27.5934 113.407 25.9029 113.53 24.7094C114.789 24.6804 116.443 24.6804 118.315 24.6804C118.286 22.5944 118.315 20.0188 118.344 18.8507C119.265 18.7273 121.841 18.7273 122.977 18.8507C123.038 20.2002 123.006 22.6851 123.006 24.6477C125.462 24.6477 128.037 24.6477 130.399 24.6767C130.399 22.6815 130.37 20.1965 130.428 18.847C131.563 18.7237 134.139 18.7237 135.061 18.847C135.09 20.0115 135.122 22.5908 135.09 24.6767C137.39 24.6767 139.138 24.7058 139.907 24.7058C140.03 25.8412 140.03 27.4048 139.907 28.6926L139.911 28.6962ZM114.542 10.0136C114.542 4.73888 117.335 2.25391 126.72 2.25391C136.105 2.25391 138.899 4.9239 138.899 10.0136C138.899 15.1032 136.105 17.7769 126.72 17.7769C117.335 17.7769 114.542 15.1395 114.542 10.0136ZM119.298 10.0136C119.298 12.5892 120.833 13.663 126.72 13.663C132.608 13.663 134.143 12.8359 134.143 10.0136C134.143 7.4379 132.608 6.3641 126.72 6.3641C120.833 6.3641 119.298 7.19121 119.298 10.0136Z" fill="#242424"/>
<path d="M39.4161 24.116C38.774 23.6082 38.1718 23.1765 37.6058 22.8064C37.6058 22.8064 35.1172 21.0252 32.0845 20.6153C31.1812 20.4956 30.2307 20.4883 29.2802 20.6951C25.326 21.5549 24.8979 22.197 22.2062 22.6795C19.5144 23.162 17.7114 23.1293 15.7234 23.9927C14.3739 24.5768 13.594 25.3059 13.6012 26.1693C13.6049 26.5974 13.496 28.8175 18.9884 27.9396C23.3417 26.9348 25.0285 26.0133 27.4337 27.2903C28.5583 27.8852 27.9271 29.1477 26.534 28.5418C25.7577 28.2045 24.9487 28.1392 23.0659 28.4366C21.8688 28.6253 21.0272 29.0388 18.2592 29.5141C15.0015 30.0691 12.4186 28.7341 11.9289 27.4644C11.4899 26.3289 11.7076 25.1391 12.259 24.4135C9.66153 23.8621 8.04357 22.8064 5.21395 21.7979C2.63101 20.8765 0.690182 21.3699 0.127886 22.2804C-0.29293 22.9697 0.425358 23.5791 0.831663 23.8077C9.15365 28.5455 17.0693 34.6835 21.3174 34.0124C22.5653 33.8165 23.465 33.5662 24.3429 33.1853C35.6759 28.2444 35.2478 28.9336 37.2467 29.7245C38.0194 30.0292 40.196 24.7182 39.4161 24.1015V24.116Z" fill="#DD574C"/>
<path d="M17.6855 15.8556V22.0916C17.6855 22.0916 20.7147 21.7869 21.9771 21.5366C22.7752 21.3769 23.2867 21.2572 23.6894 21.152V15.8556C23.6894 14.1977 22.3472 12.8555 20.6893 12.8555C19.0314 12.8555 17.6892 14.1977 17.6892 15.8556H17.6855Z" fill="#242424"/>
<path d="M36.6261 11.8336C35.3237 10.8831 21.3207 0.253939 21.3207 0.253939C21.1031 0.061671 20.8818 0 20.6823 0C20.4827 0 20.2651 0.0580433 20.0438 0.253939C20.0438 0.253939 6.03715 10.8831 4.73843 11.8372C3.43971 12.7877 4.03103 14.4999 5.43858 14.4999H6.88604V20.8049C7.52452 21.0661 8.13035 21.3237 8.71804 21.5667V13.5821C8.71804 13.3282 8.61646 13.0996 8.44959 12.9328C8.28271 12.7659 8.05417 12.6643 7.80023 12.6643H6.58131L20.6786 2.05691L34.7796 12.6643H33.5607C33.3067 12.6643 33.0782 12.7659 32.9113 12.9328C32.7444 13.0996 32.6428 13.3282 32.6428 13.5821V19.2559C33.158 19.3066 33.9343 19.4663 34.4748 19.6767V14.4963H35.9223C37.3299 14.4963 37.9212 12.7877 36.6224 11.8336H36.6261Z" fill="#242424"/>
</svg>
