<svg width="24" height="24" viewBox="0 0 24 24" fill="none" xmlns="http://www.w3.org/2000/svg">
<g clip-path="url(#clip0_10007_8346)">
<rect width="24" height="24" rx="12" fill="#DD574C"/>
<path d="M7.80564 6.10922C7.81689 6.10641 7.82814 6.10406 7.83892 6.10172C8.25892 6.01406 8.57814 6 8.81626 6C9.20906 6.01125 9.64828 6.30374 9.83999 6.65812C9.95437 6.8789 10.23 7.49624 10.3987 7.90923C10.5684 8.32126 10.8075 8.96203 10.8811 9.20582C10.9945 9.60145 10.8792 10.1574 10.5876 10.4808C10.4067 10.6716 10.3008 10.7696 9.91545 11.0405C9.91358 11.0424 9.91076 11.0433 9.90889 11.0452C9.57139 11.2749 9.47483 11.7521 9.7092 12.166C10.2619 13.1756 10.8248 13.7382 11.834 14.2908C12.2475 14.5252 12.7247 14.4286 12.9548 14.0911C12.9562 14.0887 12.9576 14.0864 12.9595 14.0845C13.2304 13.6992 13.3289 13.5933 13.5192 13.4123C13.8426 13.1203 14.3985 13.005 14.7942 13.1189C15.0379 13.193 15.6787 13.432 16.0908 13.6012C16.5042 13.77 17.1211 14.0456 17.3419 14.16C17.6962 14.3522 17.9887 14.7909 18 15.1837C18 15.4223 17.9859 15.7411 17.8988 16.1606C17.8959 16.1718 17.8936 16.1831 17.8913 16.1939C17.7178 17.1361 16.7306 17.8935 14.9597 17.9906C13.2342 18.0811 10.8103 17.5406 8.6381 15.3624C6.45939 13.1898 5.91891 10.7663 6.00939 9.04084C6.10642 7.26941 6.86343 6.28274 7.80564 6.10922Z" fill="white"/>
</g>
<defs>
<clipPath id="clip0_10007_8346">
<rect width="24" height="24" rx="12" fill="white"/>
</clipPath>
</defs>
</svg>
