<svg width="18" height="18" viewBox="0 0 18 18" fill="none" xmlns="http://www.w3.org/2000/svg">
<path d="M17.8817 6.11715L11.8815 0.117187C11.7253 -0.0390622 11.4714 -0.0390622 11.3159 0.117187L10.412 1.02108C10.0175 1.41484 9.79949 1.94139 9.79949 2.49919C9.79949 2.97341 9.95731 3.42107 10.2456 3.78746L6.83374 7.19924H5.2556C4.0798 7.19924 2.97596 7.65706 2.14374 8.48751L1.71562 8.91563C1.55936 9.07188 1.55936 9.32579 1.71562 9.48125L4.83367 12.5992L0.117189 17.3172C-0.0390632 17.4734 -0.0390632 17.7274 0.117189 17.8828C0.273442 18.0391 0.527356 18.0391 0.682819 17.8828L5.3993 13.1648L8.51735 16.2828C8.66501 16.4367 8.93298 16.4367 9.08298 16.2828L9.51111 15.8547C10.3416 15.0235 10.7994 13.9172 10.7994 12.7429V11.1648L14.2113 7.75304C14.5777 8.04132 15.0253 8.19913 15.4996 8.19913C16.0574 8.19913 16.584 7.98118 16.9777 7.58742L17.8816 6.68352C18.0394 6.52493 18.0395 6.27339 17.8817 6.11715Z" fill="#DD574C"/>
</svg>
