<svg width="19" height="19" viewBox="0 0 19 19" fill="none" xmlns="http://www.w3.org/2000/svg">
<path d="M2.85893 0.172929C2.87674 0.168476 2.89455 0.164765 2.91162 0.161054C3.57662 0.0222659 4.08206 0 4.45907 0C5.08101 0.0178124 5.77645 0.480924 6.07999 1.04203C6.26108 1.39159 6.69749 2.36905 6.96466 3.02295C7.23334 3.67533 7.61184 4.68989 7.72837 5.07589C7.90797 5.70229 7.7254 6.58252 7.26376 7.09462C6.97728 7.39668 6.80955 7.5518 6.19946 7.9808C6.19649 7.98377 6.19204 7.98525 6.18907 7.98822C5.6547 8.35189 5.50181 9.10742 5.8729 9.76277C6.74794 11.3614 7.6393 12.2521 9.23721 13.1271C9.89181 13.4982 10.6474 13.3453 11.0118 12.8109C11.014 12.8072 11.0162 12.8035 11.0192 12.8005C11.4482 12.1904 11.604 12.0227 11.9054 11.7362C12.4175 11.2738 13.2977 11.0913 13.9241 11.2716C14.31 11.3889 15.3246 11.7674 15.977 12.0353C16.6316 12.3025 17.6084 12.7389 17.958 12.92C18.5191 13.2243 18.9822 13.919 19 14.5409C19 14.9187 18.9777 15.4233 18.8397 16.0876C18.8352 16.1054 18.8315 16.1232 18.8278 16.1403C18.5532 17.6321 16.9902 18.8314 14.1861 18.9851C11.4541 19.1284 7.61635 18.2726 4.17698 14.8238C0.727362 11.3839 -0.128394 7.54665 0.0148651 4.81466C0.168496 2.0099 1.36709 0.447667 2.85893 0.172929Z" fill="white"/>
</svg>
