<svg width="16" height="16" viewBox="0 0 16 16" fill="none" xmlns="http://www.w3.org/2000/svg">
<path d="M15.7361 14.4599L11.7615 10.4729C12.5792 9.37919 13.0622 8.0225 13.0622 6.55159C13.0622 2.93835 10.133 0 6.53111 0C2.92916 0 0 2.93835 0 6.55159C0 10.1648 2.92916 13.1032 6.53111 13.1032C8.02156 13.1032 9.39817 12.5979 10.4953 11.7534L14.4664 15.737C14.6424 15.9135 14.8701 16 15.1012 16C15.3324 16 15.5601 15.9135 15.7361 15.737C16.088 15.3839 16.088 14.8129 15.7361 14.4599ZM6.53455 11.3035C3.9228 11.3035 1.79752 9.17153 1.79752 6.55159C1.79752 3.93165 3.9228 1.7997 6.53455 1.7997C9.14631 1.7997 11.2716 3.93165 11.2716 6.55159C11.2681 9.17153 9.14286 11.3035 6.53455 11.3035Z" fill="#242424"/>
</svg>
