<svg width="140" height="34" viewBox="0 0 140 34" fill="none" xmlns="http://www.w3.org/2000/svg">
<path d="M47.7048 23.7754C50.9202 20.7121 54.1356 17.4062 56.1271 15.1105C58.057 12.9054 58.4227 11.8662 58.4227 10.302C58.4227 8.46617 57.2894 7.20972 55.2689 7.20972C53.4005 7.20972 52.3287 8.19098 51.5321 9.78056C50.3083 9.3533 48.5919 8.34306 47.5527 7.48491C49.1459 4.39265 51.6552 2.83203 55.2689 2.83203C60.4432 2.83203 63.1371 5.80118 63.1371 9.90368C63.1371 12.5976 62.4926 14.8028 59.8928 17.8045C58.7595 19.1225 56.71 21.2661 54.2297 23.6849C56.4964 23.6233 61.6996 23.6233 63.568 23.6849C63.6586 25.0029 63.6586 26.9292 63.568 28.0336C61.6707 28.1567 50.1562 28.1567 47.7084 28.0336C47.6179 26.5635 47.6179 25.2455 47.7084 23.779L47.7048 23.7754Z" fill="#222323"/>
<path d="M83.8055 23.4087C83.3457 23.4377 82.1508 23.4377 80.5902 23.4703C80.5902 25.6428 80.5612 27.3266 80.5286 28.1558C79.703 28.2463 76.9765 28.2463 76.1509 28.1558C76.122 27.2686 76.0894 25.5233 76.0894 23.4703C71.7117 23.4703 66.9357 23.4703 65.8313 23.4087C65.7698 22.0907 65.7698 20.6206 65.8313 19.2737C67.9749 15.3848 72.874 6.53528 74.8655 3.1968C76.6108 3.10628 78.8775 3.10628 80.5286 3.1968C80.5902 6.37958 80.6191 13.4223 80.6191 19.3026C81.9987 19.3316 83.19 19.3316 83.8019 19.3316C83.8924 20.6496 83.8924 22.1197 83.8019 23.4051L83.8055 23.4087ZM76.0894 19.3062C76.0894 15.1712 76.1183 10.9166 76.1509 9.26183C74.3441 12.8429 72.4467 16.3045 70.7014 19.3352C71.4981 19.3352 73.6706 19.3062 76.0894 19.3062Z" fill="#222323"/>
<path d="M99.3145 5.17698C99.4014 6.27773 99.4014 7.8999 99.3145 8.91014C96.3598 8.96807 88.1983 9.02601 86.0547 8.91014C85.9388 7.75145 85.9388 6.21618 86.0547 5.17698C87.0106 5.14801 88.5748 5.11904 90.3961 5.11904C90.3961 4.10519 90.4251 3.09133 90.4541 2.48302C91.2362 2.33818 93.8976 2.30921 94.9114 2.48302C94.9404 3.09133 94.9694 4.10519 94.9404 5.11904C96.3888 5.11904 97.8661 5.14801 99.3108 5.17698H99.3145ZM99.0827 19.2189C99.0827 25.7329 97.4895 28.34 92.6846 28.34C87.8796 28.34 86.2864 25.7329 86.2864 19.2189C86.2864 12.7049 87.8796 10.0978 92.6846 10.0978C97.4895 10.0978 99.0827 12.7049 99.0827 19.2189ZM94.9983 19.2189C94.9983 14.9933 94.4769 13.7477 92.6809 13.7477C90.885 13.7477 90.3636 14.9933 90.3636 19.2189C90.3636 23.4445 90.856 24.6901 92.6809 24.6901C94.5059 24.6901 94.9983 23.4445 94.9983 19.2189ZM110.402 29.1221C109.62 29.2379 107.273 29.18 106.263 29.1221C106.234 27.4709 106.234 22.2315 106.234 16.8472H104.641C104.641 22.1156 104.612 27.2102 104.612 28.8614C103.83 28.9483 101.483 28.9483 100.473 28.8614C100.357 25.3599 100.386 6.24877 100.473 3.21082C101.255 3.03702 103.746 3.06598 104.612 3.21082C104.641 4.65919 104.67 8.53718 104.67 12.8533C105.191 12.8533 105.742 12.8533 106.234 12.8823C106.234 8.33803 106.263 4.31158 106.263 3.06598C107.045 2.89218 109.536 2.89218 110.402 3.06598C110.46 6.68328 110.46 25.6207 110.402 29.1221Z" fill="#222323"/>
<path d="M139.647 28.6428C137.015 28.8275 116.926 28.7659 113.316 28.6428C113.193 27.5421 113.193 25.8547 113.316 24.6635C114.572 24.6345 116.224 24.6345 118.092 24.6345C118.063 22.5525 118.092 19.9816 118.121 18.8157C119.041 18.6926 121.611 18.6926 122.745 18.8157C122.806 20.1627 122.774 22.643 122.774 24.6019C125.225 24.6019 127.796 24.6019 130.153 24.6309C130.153 22.6394 130.124 20.159 130.182 18.8121C131.316 18.6889 133.886 18.6889 134.806 18.8121C134.835 19.9744 134.868 22.5488 134.835 24.6309C137.131 24.6309 138.876 24.6598 139.644 24.6598C139.767 25.7932 139.767 27.3538 139.644 28.6392L139.647 28.6428ZM114.326 9.99513C114.326 4.73033 117.114 2.25 126.482 2.25C135.849 2.25 138.637 4.91499 138.637 9.99513C138.637 15.0753 135.849 17.7439 126.482 17.7439C117.114 17.7439 114.326 15.1115 114.326 9.99513ZM119.073 9.99513C119.073 12.566 120.605 13.6378 126.482 13.6378C132.358 13.6378 133.89 12.8122 133.89 9.99513C133.89 7.42428 132.358 6.35249 126.482 6.35249C120.605 6.35249 119.073 7.17806 119.073 9.99513Z" fill="#222323"/>
<path d="M39.3421 24.0703C38.7012 23.5633 38.1002 23.1325 37.5353 22.7631C37.5353 22.7631 35.0514 20.9853 32.0243 20.5761C31.1227 20.4566 30.174 20.4494 29.2253 20.6557C25.2785 21.5139 24.8512 22.1548 22.1645 22.6364C19.4778 23.118 17.6782 23.0854 15.6939 23.9472C14.347 24.5301 13.5685 25.2579 13.5757 26.1197C13.5793 26.547 13.4707 28.763 18.9528 27.8867C23.2979 26.8837 24.9816 25.964 27.3823 27.2386C28.5047 27.8324 27.8747 29.0925 26.4843 28.4878C25.7094 28.151 24.9019 28.0859 23.0227 28.3828C21.8278 28.5711 20.9877 28.9839 18.225 29.4582C14.9734 30.0122 12.3953 28.6797 11.9065 27.4124C11.4683 26.279 11.6856 25.0914 12.236 24.3672C9.6434 23.8168 8.02848 22.7631 5.20417 21.7565C2.62608 20.8368 0.688887 21.3292 0.127646 22.2381C-0.29238 22.9261 0.42456 23.5344 0.830103 23.7625C9.13648 28.4914 17.0373 34.618 21.2774 33.9481C22.523 33.7526 23.421 33.5028 24.2972 33.1226C35.609 28.1909 35.1817 28.8788 37.1768 29.6682C37.9481 29.9724 40.1206 24.6713 39.3421 24.0558V24.0703Z" fill="#F25653"/>
<path d="M17.6523 15.8265V22.0509C17.6523 22.0509 20.6758 21.7467 21.9359 21.4969C22.7325 21.3376 23.243 21.2181 23.645 21.1131V15.8265C23.645 14.1718 22.3052 12.832 20.6505 12.832C18.9957 12.832 17.656 14.1718 17.656 15.8265H17.6523Z" fill="#222323"/>
<path d="M36.5581 11.8114C35.2582 10.8627 21.2814 0.253464 21.2814 0.253464C21.0642 0.0615555 20.8433 0 20.6442 0C20.445 0 20.2278 0.0579346 20.0069 0.253464C20.0069 0.253464 6.02653 10.8627 4.73024 11.815C3.43396 12.7637 4.02416 14.4728 5.42908 14.4728H6.87382V20.7659C7.5111 21.0266 8.1158 21.2837 8.70238 21.5263V13.5567C8.70238 13.3032 8.601 13.0751 8.43444 12.9086C8.26788 12.742 8.03976 12.6406 7.78629 12.6406H6.56967L20.6405 2.05306L34.715 12.6406H33.4984C33.2449 12.6406 33.0168 12.742 32.8503 12.9086C32.6837 13.0751 32.5823 13.3032 32.5823 13.5567V19.2198C33.0965 19.2705 33.8714 19.4298 34.4109 19.6398V14.4692H35.8556C37.2605 14.4692 37.8507 12.7637 36.5545 11.8114H36.5581Z" fill="#222323"/>
</svg>
