<svg width="64" height="64" viewBox="0 0 64 64" fill="none" xmlns="http://www.w3.org/2000/svg">
<mask id="mask0_10014_12722" style="mask-type:alpha" maskUnits="userSpaceOnUse" x="0" y="0" width="64" height="64">
<circle cx="32" cy="32" r="31.75" fill="#F8F8F8" stroke="#F5F5F5" stroke-width="0.5"/>
</mask>
<g mask="url(#mask0_10014_12722)">
<circle cx="32" cy="32" r="32" fill="#DD574C"/>
</g>
<g clip-path="url(#clip0_10014_12722)">
<path d="M51.3299 40.0336C50.6663 39.5111 50.0409 39.0609 49.4539 38.6787C49.4539 38.6787 46.876 36.8354 43.7323 36.4149C42.7964 36.2875 41.8137 36.2832 40.831 36.4956C36.7344 37.3833 36.292 38.0501 33.5014 38.547C30.7108 39.0482 28.8433 39.0142 26.7843 39.9061C25.389 40.5093 24.5808 41.2653 24.5893 42.1572C24.5893 42.5989 24.4787 44.8967 30.1705 43.9878C34.6798 42.9472 36.4281 41.9958 38.9167 43.3167C40.0781 43.9326 39.4272 45.2365 37.9851 44.6121C37.1811 44.2639 36.3431 44.1959 34.3947 44.5017C33.1526 44.6971 32.2848 45.1261 29.4176 45.6145C26.0399 46.1921 23.3684 44.8075 22.8622 43.4951C22.407 42.3186 22.6324 41.0869 23.2025 40.3394C20.5097 39.766 18.8336 38.6787 15.9026 37.6338C13.2269 36.6824 11.2147 37.1879 10.6362 38.135C10.198 38.8443 10.9467 39.4772 11.3636 39.715C19.9822 44.6164 28.1839 50.9618 32.5825 50.2695C33.8757 50.0656 34.8074 49.8108 35.7177 49.4158C47.4588 44.3063 47.0121 45.0199 49.0838 45.8354C49.8835 46.1496 52.1424 40.6579 51.3341 40.0208L51.3299 40.0336Z" fill="white"/>
<path d="M28.822 31.4895V37.9369C28.822 37.9369 31.9615 37.6226 33.2674 37.3635C34.0927 37.2021 34.6245 37.0747 35.0414 36.9685V31.4895C35.0414 29.7736 33.6503 28.3848 31.9317 28.3848C30.2131 28.3848 28.822 29.7736 28.822 31.4895Z" fill="white"/>
<path d="M48.4372 27.3263C47.0886 26.3409 32.5825 15.3489 32.5825 15.3489C32.3571 15.1493 32.1273 15.0898 31.9189 15.0898C31.7105 15.0898 31.4892 15.1493 31.2553 15.3489C31.2553 15.3489 16.7492 26.3452 15.4006 27.3263C14.0521 28.3116 14.669 30.0785 16.1281 30.0785H17.6297V36.5981C18.2934 36.8657 18.9187 37.1333 19.527 37.3881V29.1314C19.527 28.868 19.4207 28.6344 19.2505 28.4603C19.0803 28.2862 18.8421 28.1842 18.5784 28.1842H17.3149L31.9232 17.2177L46.5314 28.1885H45.2679C45.0042 28.1885 44.7702 28.2947 44.5958 28.4645C44.4214 28.6344 44.3193 28.8723 44.3193 29.1356V35.0054C44.8553 35.0606 45.655 35.222 46.2166 35.4386V30.0828H47.7182C49.1774 30.0828 49.7899 28.3159 48.4457 27.3305L48.4372 27.3263Z" fill="white"/>
</g>
<defs>
<clipPath id="clip0_10014_12722">
<rect width="41" height="36" fill="white" transform="translate(10.5 14.334)"/>
</clipPath>
</defs>
</svg>
